<?xml version="1.0" encoding="UTF-8" standalone="no"?>
<svg
   xmlns:dc="http://purl.org/dc/elements/1.1/"
   xmlns:cc="http://creativecommons.org/ns#"
   xmlns:rdf="http://www.w3.org/1999/02/22-rdf-syntax-ns#"
   xmlns:svg="http://www.w3.org/2000/svg"
   xmlns="http://www.w3.org/2000/svg"
   xmlns:xlink="http://www.w3.org/1999/xlink"
   xmlns:sodipodi="http://sodipodi.sourceforge.net/DTD/sodipodi-0.dtd"
   xmlns:inkscape="http://www.inkscape.org/namespaces/inkscape"
   version="1.0"
   width="384pt"
   height="384pt"
   viewBox="0 0 384 384"
   preserveAspectRatio="xMidYMid meet"
   id="svg54"
   sodipodi:docname="mark.svg"
   inkscape:version="0.92.3 (2405546, 2018-03-11)"
   inkscape:export-filename="/tmp/mark.svg.png"
   inkscape:export-xdpi="96"
   inkscape:export-ydpi="96">
  <metadata
     id="metadata60">
    <rdf:RDF>
      <cc:Work
         rdf:about="">
        <dc:format>image/svg+xml</dc:format>
        <dc:type
           rdf:resource="http://purl.org/dc/dcmitype/StillImage" />
        <dc:title></dc:title>
      </cc:Work>
    </rdf:RDF>
  </metadata>
  <defs
     id="defs58">
    <inkscape:perspective
       sodipodi:type="inkscape:persp3d"
       inkscape:vp_x="0 : 82.5 : 1"
       inkscape:vp_y="0 : 1000 : 0"
       inkscape:vp_z="176 : 82.5 : 1"
       inkscape:persp3d-origin="88.000002 : 55 : 1"
       id="perspective883" />
    <linearGradient
       inkscape:collect="always"
       xlink:href="#linearGradient4206"
       id="linearGradient4202"
       gradientUnits="userSpaceOnUse"
       x1="-9.1877794"
       y1="1046.2373"
       x2="127.24731"
       y2="909.80219"
       gradientTransform="translate(4.0000004,4.0000004)" />
    <linearGradient
       id="linearGradient4206"
       inkscape:collect="always">
      <stop
         id="stop4208"
         offset="0"
         style="stop-color:#757575;stop-opacity:1" />
      <stop
         id="stop4210"
         offset="1"
         style="stop-color:#ffffff;stop-opacity:0" />
    </linearGradient>
    <filter
       inkscape:collect="always"
       style="color-interpolation-filters:sRGB"
       id="filter4243"
       x="-0.051950943"
       width="1.1039019"
       y="-0.042578351"
       height="1.0851567">
      <feGaussianBlur
         inkscape:collect="always"
         stdDeviation="2.3390485"
         id="feGaussianBlur4245" />
    </filter>
    <linearGradient
       gradientUnits="userSpaceOnUse"
       y2="911.44098"
       x2="80.033821"
       y1="1040.469"
       x1="80.033821"
       id="linearGradient4259"
       xlink:href="#linearGradient4204"
       inkscape:collect="always" />
    <linearGradient
       inkscape:collect="always"
       id="linearGradient4204">
      <stop
         style="stop-color:#f1f1f1;stop-opacity:1"
         offset="0"
         id="stop4206" />
      <stop
         id="stop4209"
         offset="0.31798109"
         style="stop-color:#f1f1f1;stop-opacity:1" />
      <stop
         id="stop4211"
         offset="0.64452428"
         style="stop-color:#f5f5f5;stop-opacity:1" />
      <stop
         style="stop-color:#f8f8f8;stop-opacity:1"
         offset="0.91503954"
         id="stop4213" />
      <stop
         style="stop-color:#e3e3e3;stop-opacity:1"
         offset="1"
         id="stop4215" />
    </linearGradient>
    <linearGradient
       gradientUnits="userSpaceOnUse"
       y2="909.80219"
       x2="127.24731"
       y1="1046.2373"
       x1="-9.1877794"
       id="linearGradient4212"
       xlink:href="#linearGradient4217"
       inkscape:collect="always" />
    <linearGradient
       inkscape:collect="always"
       id="linearGradient4217">
      <stop
         style="stop-color:#757575;stop-opacity:1"
         offset="0"
         id="stop4219" />
      <stop
         style="stop-color:#ffffff;stop-opacity:1"
         offset="1"
         id="stop4221" />
    </linearGradient>
    <radialGradient
       gradientUnits="userSpaceOnUse"
       gradientTransform="matrix(0.08401401,-0.7652039,0.72877273,0.37471798,-570.85726,662.78812)"
       r="11.383471"
       fy="930.54199"
       fx="110.60657"
       cy="930.54199"
       cx="110.60657"
       id="radialGradient4250"
       xlink:href="#linearGradient4244"
       inkscape:collect="always" />
    <linearGradient
       id="linearGradient4244"
       inkscape:collect="always">
      <stop
         id="stop4246"
         offset="0"
         style="stop-color:#696969;stop-opacity:1;" />
      <stop
         id="stop4248"
         offset="1"
         style="stop-color:#696969;stop-opacity:0;" />
    </linearGradient>
    <linearGradient
       gradientUnits="userSpaceOnUse"
       y2="917.08038"
       x2="129.12921"
       y1="923.73657"
       x1="109.06784"
       id="linearGradient4240"
       xlink:href="#linearGradient4234"
       inkscape:collect="always" />
    <linearGradient
       id="linearGradient4234"
       inkscape:collect="always">
      <stop
         id="stop4236"
         offset="0"
         style="stop-color:#ffffff;stop-opacity:1" />
      <stop
         id="stop4238"
         offset="1"
         style="stop-color:#696969;stop-opacity:0" />
    </linearGradient>
    <linearGradient
       gradientUnits="userSpaceOnUse"
       y2="920.22839"
       x2="117.0766"
       y1="931.27203"
       x1="106.52367"
       id="linearGradient4222"
       xlink:href="#linearGradient4216"
       inkscape:collect="always" />
    <linearGradient
       id="linearGradient4216"
       inkscape:collect="always">
      <stop
         id="stop4218"
         offset="0"
         style="stop-color:#747474;stop-opacity:1" />
      <stop
         id="stop4220"
         offset="1"
         style="stop-color:#000000;stop-opacity:0;" />
    </linearGradient>
    <linearGradient
       inkscape:collect="always"
       xlink:href="#linearGradient4206"
       id="linearGradient4510"
       gradientUnits="userSpaceOnUse"
       gradientTransform="translate(-26.000004,-868.36203)"
       x1="-9.1877794"
       y1="1046.2373"
       x2="127.24731"
       y2="909.80219" />
    <linearGradient
       inkscape:collect="always"
       xlink:href="#linearGradient4204"
       id="linearGradient4512"
       gradientUnits="userSpaceOnUse"
       x1="80.033821"
       y1="1040.469"
       x2="80.033821"
       y2="911.44098"
       gradientTransform="matrix(0.11264898,0,0,0.13661908,41.177809,-64.627871)" />
    <linearGradient
       inkscape:collect="always"
       xlink:href="#linearGradient4217"
       id="linearGradient4514"
       gradientUnits="userSpaceOnUse"
       x1="-9.1877794"
       y1="1046.2373"
       x2="127.24731"
       y2="909.80219"
       gradientTransform="matrix(0.11264898,0,0,0.13661908,41.177809,-64.627871)" />
    <radialGradient
       inkscape:collect="always"
       xlink:href="#linearGradient4244"
       id="radialGradient4516"
       gradientUnits="userSpaceOnUse"
       gradientTransform="matrix(0.00946409,-0.10454145,0.0820955,0.05119363,-23.128676,25.92163)"
       cx="110.60657"
       cy="930.54199"
       fx="110.60657"
       fy="930.54199"
       r="11.383471" />
    <linearGradient
       inkscape:collect="always"
       xlink:href="#linearGradient4234"
       id="linearGradient4518"
       gradientUnits="userSpaceOnUse"
       x1="109.06784"
       y1="923.73657"
       x2="129.12921"
       y2="917.08038"
       gradientTransform="matrix(0.11264898,0,0,0.13661908,41.688987,-64.651306)" />
    <linearGradient
       inkscape:collect="always"
       xlink:href="#linearGradient4216"
       id="linearGradient4520"
       gradientUnits="userSpaceOnUse"
       x1="106.52367"
       y1="931.27203"
       x2="117.0766"
       y2="920.22839"
       gradientTransform="matrix(0.11264898,0,0,0.13661908,41.688987,-64.651306)" />
  </defs>
  <sodipodi:namedview
     pagecolor="#ffffff"
     bordercolor="#666666"
     borderopacity="1"
     objecttolerance="10"
     gridtolerance="10"
     guidetolerance="10"
     inkscape:pageopacity="0"
     inkscape:pageshadow="2"
     inkscape:window-width="1920"
     inkscape:window-height="1059"
     id="namedview56"
     showgrid="false"
     inkscape:snap-text-baseline="true"
     inkscape:zoom="0.70710678"
     inkscape:cx="674.63924"
     inkscape:cy="202.81991"
     inkscape:window-x="2560"
     inkscape:window-y="21"
     inkscape:window-maximized="1"
     inkscape:current-layer="layer2"
     fit-margin-top="0"
     fit-margin-left="0"
     fit-margin-right="0"
     fit-margin-bottom="0" />
  <g
     inkscape:groupmode="layer"
     id="layer1"
     inkscape:label="Layer 1"
     transform="translate(126.80508,112.27187)" />
  <g
     inkscape:groupmode="layer"
     id="layer2"
     inkscape:label="Layer 2"
     transform="translate(126.80508,112.27187)">
    <g
       id="g2322"
       transform="matrix(11.80561,0,0,12.353294,-541.45573,-755.11211)">
      <g
         transform="matrix(0.11264898,0,0,0.13661908,44.557279,54.553425)"
         id="g4251">
        <path
           transform="translate(0,-902.36203)"
           style="opacity:1;fill:#b1b1b1;fill-opacity:1;fill-rule:nonzero;stroke:url(#linearGradient4202);stroke-width:1.00000012;stroke-linecap:round;stroke-linejoin:round;stroke-miterlimit:4;stroke-dasharray:none;stroke-dashoffset:0.40000001;stroke-opacity:1;filter:url(#filter4243)"
           d="m 24.389282,915.34302 82.657728,1.2e-4 c 13.00489,2e-5 23.7003,12.05422 23.7003,23.69988 v 106.60568 c 0,0.9418 -0.7582,1.5387 -1.7,1.5387 H 24.389282 c -0.941801,0 -1.700001,-0.7582 -1.700001,-1.7 V 917.04302 c 0,-0.9418 0.7582,-1.7 1.700001,-1.7 z"
           id="path4198"
           inkscape:connector-curvature="0"
           sodipodi:nodetypes="sccssssss" />
        <path
           transform="translate(0,-902.36203)"
           sodipodi:nodetypes="sccssssss"
           inkscape:connector-curvature="0"
           id="rect4200"
           d="m 20.389282,911.34302 82.657728,1.2e-4 c 13.00489,2e-5 23.7003,12.05422 23.7003,23.69988 v 106.60568 c 0,0.9418 -0.7582,1.5387 -1.7,1.5387 H 20.389282 c -0.941801,0 -1.700001,-0.7582 -1.700001,-1.7 V 913.04302 c 0,-0.9418 0.7582,-1.7 1.700001,-1.7 z"
           style="opacity:1;fill:url(#linearGradient4259);fill-opacity:1;fill-rule:nonzero;stroke:url(#linearGradient4212);stroke-width:1.00000012;stroke-linecap:round;stroke-linejoin:round;stroke-miterlimit:4;stroke-dasharray:none;stroke-dashoffset:0.40000001;stroke-opacity:1" />
        <path
           transform="translate(0,-902.36203)"
           inkscape:connector-curvature="0"
           id="path4242"
           d="m 117.54524,918.13166 a 10.562701,7.2275961 57.106219 0 1 7.39259,11.75347 10.562701,7.2275961 57.106219 0 1 -7.03707,6.49456 10.562701,7.2275961 57.106219 0 1 -9.30446,-9.98901 10.562701,7.2275961 57.106219 0 1 4.50925,-9.20838"
           style="opacity:1;fill:url(#radialGradient4250);fill-opacity:1;fill-rule:nonzero;stroke:none;stroke-width:0.5;stroke-linecap:round;stroke-linejoin:round;stroke-miterlimit:4;stroke-dasharray:none;stroke-dashoffset:0.40000001;stroke-opacity:1" />
        <path
           transform="translate(0,-902.36203)"
           sodipodi:nodetypes="cccc"
           inkscape:connector-curvature="0"
           id="path4214"
           d="m 104.36817,911.63806 c 5.17019,3.81048 4.19957,16.69521 4.19957,16.69521 0,0 13.95429,-0.69719 18.10243,7.76929 -2.29368,-17.16016 -10.66367,-20.64169 -22.302,-24.4645 z"
           style="fill:url(#linearGradient4240);fill-opacity:1;fill-rule:evenodd;stroke:url(#linearGradient4222);stroke-width:0.50000006;stroke-linecap:butt;stroke-linejoin:miter;stroke-miterlimit:4;stroke-dasharray:none;stroke-opacity:1" />
        <flowRoot
           id="flowRoot4301"
           xml:space="preserve"
           transform="matrix(0.49459682,0,0,0.49459682,26.003436,17.956604)"
           style="font-style:normal;font-variant:normal;font-weight:normal;font-stretch:normal;line-height:0.01%;font-family:'Fira Sans';-inkscape-font-specification:'Fira Sans'"><flowRegion
             id="flowRegion4303"><rect
               id="rect4305"
               y="0"
               x="0"
               width="189.92972"
               height="238.7327"
               style="font-style:normal;font-variant:normal;font-weight:normal;font-stretch:normal;font-size:15.16386795px;font-family:'Fira Sans';-inkscape-font-specification:'Fira Sans'" /></flowRegion><flowPara
             style="font-size:15.16386795px;line-height:1.25"
             id="flowPara4325" /></flowRoot>      </g>
      <path
         transform="matrix(0.11264898,0,0,0.13661908,44.557279,54.553425)"
         style="opacity:1;fill:#b1b1b1;fill-opacity:1;fill-rule:nonzero;stroke:url(#linearGradient4510);stroke-width:1.00000012;stroke-linecap:round;stroke-linejoin:round;stroke-miterlimit:4;stroke-dasharray:none;stroke-dashoffset:0.40000001;stroke-opacity:1;filter:url(#filter4243)"
         d="m -5.610722,42.98099 82.657728,1.2e-4 c 13.00489,2e-5 23.700304,12.05422 23.700304,23.69988 v 106.60568 c 0,0.9418 -0.758204,1.5387 -1.700004,1.5387 H -5.610722 c -0.941801,0 -1.700001,-0.7582 -1.700001,-1.7 V 44.68099 c 0,-0.9418 0.7582,-1.7 1.700001,-1.7 z"
         id="path4460"
         inkscape:connector-curvature="0"
         sodipodi:nodetypes="sccssssss" />
      <path
         sodipodi:nodetypes="sccssssss"
         inkscape:connector-curvature="0"
         id="path4462"
         d="m 43.474642,59.878972 9.311307,1.6e-5 c 1.464988,3e-6 2.669816,1.646837 2.669816,3.237856 v 14.564369 c 0,0.128671 -0.08541,0.210216 -0.191505,0.210216 H 43.474642 c -0.106094,0 -0.191504,-0.103585 -0.191504,-0.232251 V 60.111224 c 0,-0.128667 0.08541,-0.232252 0.191504,-0.232252 z"
         style="opacity:1;fill:url(#linearGradient4512);fill-opacity:1;fill-rule:nonzero;stroke:url(#linearGradient4514);stroke-width:0.12405644;stroke-linecap:round;stroke-linejoin:round;stroke-miterlimit:4;stroke-dasharray:none;stroke-dashoffset:0.40000001;stroke-opacity:1" />
      <path
         inkscape:connector-curvature="0"
         id="path4464"
         d="m 54.419161,60.80643 a 1.3866765,0.84729044 68.139892 0 1 0.832768,1.605748 1.3866765,0.84729044 68.139892 0 1 -0.792719,0.887281 1.3866765,0.84729044 68.139892 0 1 -1.048137,-1.36469 1.3866765,0.84729044 68.139892 0 1 0.50796,-1.25804"
         style="opacity:1;fill:url(#radialGradient4516);fill-opacity:1;fill-rule:nonzero;stroke:none;stroke-width:0.09581607;stroke-linecap:round;stroke-linejoin:round;stroke-miterlimit:4;stroke-dasharray:none;stroke-dashoffset:0.40000001;stroke-opacity:1" />
      <path
         sodipodi:nodetypes="cccc"
         inkscape:connector-curvature="0"
         id="path4466"
         d="m 53.445955,59.895845 c 0.582417,0.520584 0.473078,2.280884 0.473078,2.280884 0,0 1.571937,-0.09525 2.039219,1.061433 -0.258381,-2.344405 -1.20125,-2.820048 -2.512297,-3.342317 z"
         style="fill:url(#linearGradient4518);fill-opacity:1;fill-rule:evenodd;stroke:url(#linearGradient4520);stroke-width:0.06202822;stroke-linecap:butt;stroke-linejoin:miter;stroke-miterlimit:4;stroke-dasharray:none;stroke-opacity:1" />
      <g
         style="opacity:0.97000002;fill:#99cc33;fill-opacity:1;stroke:none"
         id="g52"
         transform="matrix(0.03219088,0,0,-0.03077703,24.178301,93.279195)">
        <path
           inkscape:connector-curvature="0"
           style="fill:#99cc33;fill-opacity:1"
           id="path2"
           d="m 340,1244 c 0,-86 2,-95 18,-92 14,3 18,16 20,75 l 3,72 72,3 c 59,2 72,6 75,21 3,15 -6,17 -92,17 h -96 z" />
        <path
           inkscape:connector-curvature="0"
           style="fill:#99cc33;fill-opacity:1"
           id="path4"
           d="m 1157,1333 c -4,-3 -2,-12 4,-20 8,-8 35,-13 80,-13 h 69 v -75 c 0,-57 3,-75 14,-75 20,0 26,23 26,95 0,96 1,95 -99,95 -48,0 -91,-3 -94,-7 z" />
        <path
           inkscape:connector-curvature="0"
           style="fill:#99cc33;fill-opacity:1"
           id="path6"
           d="m 583,1323 c 15,-2 37,-2 50,0 12,2 0,4 -28,4 -27,0 -38,-2 -22,-4 z" />
        <path
           inkscape:connector-curvature="0"
           style="fill:#99cc33;fill-opacity:1"
           id="path8"
           d="m 698,1323 c 12,-2 32,-2 45,0 12,2 2,4 -23,4 -25,0 -35,-2 -22,-4 z" />
        <path
           inkscape:connector-curvature="0"
           style="fill:#99cc33;fill-opacity:1"
           id="path10"
           d="m 817,1323 c 20,-4 22,-11 26,-76 l 3,-72 2,72 c 2,59 5,72 20,76 9,3 -3,5 -28,4 -25,0 -35,-2 -23,-4 z" />
        <path
           inkscape:connector-curvature="0"
           style="fill:#99cc33;fill-opacity:1"
           id="path12"
           d="m 938,1323 c 12,-2 32,-2 45,0 12,2 2,4 -23,4 -25,0 -35,-2 -22,-4 z" />
        <path
           inkscape:connector-curvature="0"
           style="fill:#99cc33;fill-opacity:1"
           id="path14"
           d="m 1058,1323 c 12,-2 32,-2 45,0 12,2 2,4 -23,4 -25,0 -35,-2 -22,-4 z" />
        <path
           inkscape:connector-curvature="0"
           style="fill:#99cc33;fill-opacity:1"
           id="path16"
           d="m 353,1080 c 0,-25 2,-35 4,-22 2,12 2,32 0,45 -2,12 -4,2 -4,-23 z" />
        <path
           inkscape:connector-curvature="0"
           style="fill:#99cc33;fill-opacity:1"
           id="path18"
           d="m 1323,1080 c 0,-25 2,-35 4,-22 2,12 2,32 0,45 -2,12 -4,2 -4,-23 z" />
        <path
           inkscape:connector-curvature="0"
           style="fill:#99cc33;fill-opacity:1"
           id="path20"
           d="m 353,955 c 0,-22 2,-30 4,-17 2,12 2,30 0,40 -3,9 -5,-1 -4,-23 z" />
        <path
           inkscape:connector-curvature="0"
           style="fill:#99cc33;fill-opacity:1"
           id="path22"
           d="m 1323,955 c 0,-22 2,-30 4,-17 2,12 2,30 0,40 -3,9 -5,-1 -4,-23 z" />
        <path
           inkscape:connector-curvature="0"
           style="fill:#99cc33;fill-opacity:1"
           id="path24"
           d="m 352,840 c 0,-25 2,-37 5,-27 4,14 16,17 74,17 38,0 69,4 69,10 0,5 -29,8 -66,7 -58,-2 -67,0 -75,18 -6,15 -8,8 -7,-25 z" />
        <path
           inkscape:connector-curvature="0"
           style="fill:#99cc33;fill-opacity:1"
           id="path26"
           d="m 1320,863 c 0,-15 -8,-18 -54,-15 -30,2 -63,-1 -73,-7 -14,-8 -2,-10 54,-11 60,0 72,-3 76,-17 3,-10 5,1 6,25 0,23 -1,42 -4,42 -3,0 -5,-8 -5,-17 z" />
        <path
           inkscape:connector-curvature="0"
           style="fill:#99cc33;fill-opacity:1"
           id="path28"
           d="m 353,720 c 0,-25 2,-35 4,-22 2,12 2,32 0,45 -2,12 -4,2 -4,-23 z" />
        <path
           inkscape:connector-curvature="0"
           style="fill:#99cc33;fill-opacity:1"
           id="path30"
           d="m 1323,720 c 0,-25 2,-35 4,-22 2,12 2,32 0,45 -2,12 -4,2 -4,-23 z" />
        <path
           inkscape:connector-curvature="0"
           style="fill:#99cc33;fill-opacity:1"
           id="path32"
           d="m 353,600 c 0,-25 2,-35 4,-22 2,12 2,32 0,45 -2,12 -4,2 -4,-23 z" />
        <path
           inkscape:connector-curvature="0"
           style="fill:#99cc33;fill-opacity:1"
           id="path34"
           d="m 1323,600 c 0,-25 2,-35 4,-22 2,12 2,32 0,45 -2,12 -4,2 -4,-23 z" />
        <path
           inkscape:connector-curvature="0"
           style="fill:#99cc33;fill-opacity:1"
           id="path36"
           d="m 346,523 c -3,-4 -6,-46 -6,-94 0,-100 -1,-99 95,-99 72,0 95,6 95,26 0,11 -18,14 -75,14 h -75 v 74 c 0,54 -4,75 -14,79 -8,3 -17,3 -20,0 z" />
        <path
           inkscape:connector-curvature="0"
           style="fill:#99cc33;fill-opacity:1"
           id="path38"
           d="m 1315,519 c -2,-8 -6,-43 -7,-79 l -3,-65 -70,-3 c -73,-3 -102,-15 -75,-32 22,-14 164,-12 178,2 18,18 16,162 -3,178 -12,10 -16,10 -20,-1 z" />
        <path
           inkscape:connector-curvature="0"
           style="fill:#99cc33;fill-opacity:1"
           id="path40"
           d="m 843,435 c 0,-38 2,-53 4,-32 2,20 2,52 0,70 -2,17 -4,1 -4,-38 z" />
        <path
           inkscape:connector-curvature="0"
           style="fill:#99cc33;fill-opacity:1"
           id="path42"
           d="m 578,353 c 12,-2 32,-2 45,0 12,2 2,4 -23,4 -25,0 -35,-2 -22,-4 z" />
        <path
           inkscape:connector-curvature="0"
           style="fill:#99cc33;fill-opacity:1"
           id="path44"
           d="m 698,353 c 12,-2 32,-2 45,0 12,2 2,4 -23,4 -25,0 -35,-2 -22,-4 z" />
        <path
           inkscape:connector-curvature="0"
           style="fill:#99cc33;fill-opacity:1"
           id="path46"
           d="m 818,353 c 12,-2 32,-2 45,0 12,2 2,4 -23,4 -25,0 -35,-2 -22,-4 z" />
        <path
           inkscape:connector-curvature="0"
           style="fill:#99cc33;fill-opacity:1"
           id="path48"
           d="m 938,353 c 12,-2 32,-2 45,0 12,2 2,4 -23,4 -25,0 -35,-2 -22,-4 z" />
        <path
           inkscape:connector-curvature="0"
           style="fill:#99cc33;fill-opacity:1"
           id="path50"
           d="m 1058,353 c 12,-2 32,-2 45,0 12,2 2,4 -23,4 -25,0 -35,-2 -22,-4 z" />
      </g>
      <text
         id="text2266"
         y="73.911308"
         x="43.875824"
         style="font-style:normal;font-weight:normal;font-size:30px;line-height:1.25;font-family:sans-serif;letter-spacing:0px;word-spacing:0px;fill:#000000;fill-opacity:1;stroke:none;stroke-width:0.75"
         xml:space="preserve"><tspan
           style="font-style:italic;font-variant:normal;font-weight:normal;font-stretch:normal;font-size:16px;font-family:'Ubuntu Mono';-inkscape-font-specification:'Ubuntu Mono Italic';fill:#669900;stroke-width:0.75"
           y="73.911308"
           x="43.875824"
           id="tspan2264"
           sodipodi:role="line">f</tspan></text>
    </g>
  </g>
</svg>
